<svg width="960" height="540" viewBox="0 0 960 540" fill="none" xmlns="http://www.w3.org/2000/svg" role="img" aria-labelledby="title desc">
  <title id="title">The Data Leak Hydra 7 Heads</title>
  <desc id="desc">Corrupted form: redacted files peel away as toxic data streams pour out.</desc>
  <defs>
    <linearGradient id="bg" x1="0" y1="0" x2="960" y2="540" gradientUnits="userSpaceOnUse">
      <stop offset="0" stop-color="#050b14"/>
      <stop offset=".48" stop-color="#12051c"/>
      <stop offset="1" stop-color="#061b22"/>
    </linearGradient>
    <radialGradient id="core" cx="50%" cy="46%" r="50%">
      <stop offset="0" stop-color="#39ff88" stop-opacity=".32"/>
      <stop offset=".45" stop-color="#ff2b4f" stop-opacity=".16"/>
      <stop offset="1" stop-color="#020713" stop-opacity="0"/>
    </radialGradient>
    <pattern id="scan" width="9" height="9" patternUnits="userSpaceOnUse">
      <path d="M0 0H9" stroke="#39ff88" stroke-opacity=".08"/>
    </pattern>
    <filter id="phaseImage">
      <feColorMatrix type="saturate" values="1.6600000000000001"/>
      <feComponentTransfer>
        <feFuncR type="linear" slope="1.18"/>
        <feFuncG type="linear" slope="1.06"/>
        <feFuncB type="linear" slope="1.12"/>
      </feComponentTransfer>
    </filter>
    <filter id="glow" x="-30%" y="-30%" width="160%" height="160%">
      <feGaussianBlur stdDeviation="8" result="blur"/>
      <feMerge><feMergeNode in="blur"/><feMergeNode in="SourceGraphic"/></feMerge>
    </filter>
    <filter id="heavyGlow" x="-50%" y="-50%" width="200%" height="200%">
      <feGaussianBlur stdDeviation="16" result="blur"/>
      <feMerge><feMergeNode in="blur"/><feMergeNode in="SourceGraphic"/></feMerge>
    </filter>
    <style>
      @keyframes pulseGlow { 0%,100% { opacity: .46; } 50% { opacity: 1; } }
      @keyframes energyMove { to { stroke-dashoffset: -260; transform: translateX(34px); } }
      @keyframes scanMove { 0% { transform: translateY(-540px); } 100% { transform: translateY(540px); } }
      @keyframes reactorFlicker { 0%,100% { opacity: .34; transform: scale(.94); } 40% { opacity: .92; transform: scale(1.08); } 70% { opacity: .58; transform: scale(1.02); } }
      @keyframes corruptionPulse { 0%,100% { opacity: .22; } 50% { opacity: .78; } }
      @keyframes eyeGlowPulse { 0%,100% { opacity: .56; } 50% { opacity: 1; } }
      @keyframes threatPulse { 0%,100% { opacity: .52; } 50% { opacity: 1; } }
      @keyframes spin { to { transform: rotate(360deg); } }
      @keyframes sweep { 0% { transform: translateX(-960px); } 100% { transform: translateX(960px); } }
      @keyframes emberRise { 0% { transform: translateY(60px); opacity: 0; } 35% { opacity: .9; } 100% { transform: translateY(-220px); opacity: 0; } }
      @keyframes mouthFire { 0%,100% { opacity: .28; transform: scaleX(.92); } 50% { opacity: .88; transform: scaleX(1.08); } }
      @keyframes heatDistort { 0%,100% { transform: translateX(-12px); opacity: .22; } 50% { transform: translateX(14px); opacity: .62; } }
      @keyframes smokeDrift { 0% { transform: translateX(-30px); opacity: .04; } 50% { opacity: .18; } 100% { transform: translateX(42px); opacity: .04; } }
      @keyframes dataFall { 0% { transform: translateY(-120px); opacity: 0; } 20% { opacity: .9; } 100% { transform: translateY(560px); opacity: 0; } }
      @keyframes lockDrift { 0%,100% { transform: translate(0,0); } 50% { transform: translate(12px,-18px); } }
      @keyframes particleDrift { 0%,100% { transform: translate(0,0); opacity: .25; } 50% { transform: translate(20px,-26px); opacity: .8; } }
      @keyframes orbitPlanet { to { transform: rotate(360deg); } }
      @keyframes rotateEquation { 0%,100% { transform: rotate(-2deg); opacity: .34; } 50% { transform: rotate(3deg); opacity: .84; } }
      @keyframes voidDrift { 0%,100% { transform: translate(0,0); } 50% { transform: translate(-18px,16px); } }
      @keyframes apparitionFade { 0%,100% { opacity: .08; transform: scale(.92); } 50% { opacity: .46; transform: scale(1.08); } }
      @keyframes fragmentDrift { 0%,100% { transform: translateY(0) rotate(0deg); opacity: .18; } 50% { transform: translateY(-24px) rotate(8deg); opacity: .58; } }
      @keyframes chainMove { to { stroke-dashoffset: -180; } }
      @keyframes lightningFlash { 0%,100% { opacity: .15; } 45% { opacity: 1; } 52% { opacity: .25; } 60% { opacity: .9; } }
      @keyframes veinSurge { to { stroke-dashoffset: -140; } }
      @keyframes magicRotate { to { transform: rotate(360deg); } }
      @keyframes pageDrift { 0%,100% { transform: translate(0,0) rotate(0deg); opacity: .25; } 50% { transform: translate(18px,-24px) rotate(6deg); opacity: .74; } }
      @keyframes promptFloat { 0%,100% { transform: translateY(0); opacity: .25; } 50% { transform: translateY(-30px); opacity: .82; } }
      .pulsing-glow { animation: pulseGlow 1.7399999999999998s ease-in-out infinite; }
      .energy-movement { animation: energyMove 3.9600000000000004s linear infinite; }
      .scanline-movement { animation: scanMove 4.75s linear infinite; }
      .reactor-flicker { transform-box: fill-box; transform-origin: center; animation: reactorFlicker 1.26s steps(3,end) infinite; }
      .corruption-pulse { animation: corruptionPulse 2.1399999999999997s ease-in-out infinite; }
      .eye-glow-pulse { animation: eyeGlowPulse 1.44s ease-in-out infinite; }
      .threat-indicator-pulse { animation: threatPulse 1.3599999999999999s ease-in-out infinite; }
      .spin { transform-origin: 480px 270px; animation: spin 8s linear infinite; }
      .sweep { animation: sweep 4.8s linear infinite; }
      .ember-rise { animation: emberRise 2.35s ease-out infinite; }
      .mouth-fire { transform-box: fill-box; transform-origin: center; animation: mouthFire 0.96s ease-in-out infinite; }
      .heat-distortion { animation: heatDistort 2.08s ease-in-out infinite; }
      .smoke-drift { animation: smokeDrift 4.9s ease-in-out infinite; }
      .data-waterfall { animation: dataFall 3.4599999999999995s linear infinite; }
      .lock-drift { animation: lockDrift 3.3600000000000003s ease-in-out infinite; }
      .corruption-particle { animation: particleDrift 2.54s ease-in-out infinite; }
      .data-leak { animation: energyMove 2.98s linear infinite; }
      .orbiting-planet { transform-origin: 480px 270px; animation: orbitPlanet 8.4s linear infinite; }
      .rotating-equation { transform-box: fill-box; transform-origin: center; animation: rotateEquation 3.98s ease-in-out infinite; }
      .void-particle-drift { animation: voidDrift 3.1s ease-in-out infinite; }
      .orbiting-face { transform-origin: 480px 270px; animation: orbitPlanet 8.8s linear infinite; }
      .apparition-fade { animation: apparitionFade 2.94s ease-in-out infinite; }
      .memory-fragment { animation: fragmentDrift 3.8199999999999994s ease-in-out infinite; }
      .moving-chain { animation: chainMove 2.96s linear infinite; }
      .lightning-arc { animation: lightningFlash 1.32s steps(2,end) infinite; }
      .glowing-vein { animation: veinSurge 2.45s linear infinite; }
      .magic-circle-rotate { transform-origin: 480px 286px; animation: magicRotate 9.8s linear infinite; }
      .spell-page-drift { animation: pageDrift 3.9s ease-in-out infinite; }
      .prompt-fragment { animation: promptFloat 3.0199999999999996s ease-in-out infinite; }
    </style>
  </defs>
  <rect width="960" height="540" fill="url(#bg)"/>
  <image href="../boss_phases/data_leak_hydra_p3.png" x="0" y="0" width="960" height="540" preserveAspectRatio="xMidYMid slice" filter="url(#phaseImage)"/>
  <rect width="960" height="540" fill="url(#core)" opacity="0.5"/>
  <rect class="corruption-pulse" width="960" height="540" fill="#ff2b4f" fill-opacity=".12"/>
  <rect width="960" height="540" fill="url(#scan)"/>
  <rect class="scanline-movement" x="0" y="-540" width="960" height="86" fill="#39ff88" fill-opacity=".10"/>
  <rect class="sweep" x="0" y="0" width="258" height="540" fill="#39ff88" fill-opacity=".045"/>
  <path class="spin" d="M84 270C204 32 756 32 876 270C756 508 204 508 84 270Z" stroke="#ff2b4f" stroke-opacity=".16" stroke-width="6" stroke-dasharray="26 18" fill="none"/>
  <g filter="url(#heavyGlow)">
    <path class="energy-movement" d="M-40 80C160 10 330 164 520 80C710 -4 850 148 1000 52" stroke="#23f7dd" stroke-opacity=".42" stroke-width="3" stroke-linecap="round" stroke-dasharray="30 24" fill="none"/>
    <path class="energy-movement" d="M-40 175C160 105 330 259 520 175C710 91 850 243 1000 147" stroke="#23f7dd" stroke-opacity=".42" stroke-width="4" stroke-linecap="round" stroke-dasharray="30 24" fill="none"/>
    <path class="energy-movement" d="M-40 270C160 200 330 354 520 270C710 186 850 338 1000 242" stroke="#23f7dd" stroke-opacity=".42" stroke-width="5" stroke-linecap="round" stroke-dasharray="30 24" fill="none"/>
    <path class="energy-movement" d="M-40 365C160 295 330 449 520 365C710 281 850 433 1000 337" stroke="#23f7dd" stroke-opacity=".42" stroke-width="6" stroke-linecap="round" stroke-dasharray="30 24" fill="none"/>
    <path class="energy-movement" d="M-40 460C160 390 330 544 520 460C710 376 850 528 1000 432" stroke="#23f7dd" stroke-opacity=".42" stroke-width="3" stroke-linecap="round" stroke-dasharray="30 24" fill="none"/>
    <path class="corruption-pulse" d="M80 70L104 104L88 142L126 188" stroke="#ff2b4f" stroke-opacity=".42" stroke-width="2" fill="none"/>
    <path class="corruption-pulse" d="M217 153L241 187L225 225L263 271" stroke="#ff2b4f" stroke-opacity=".42" stroke-width="3" fill="none"/>
    <path class="corruption-pulse" d="M354 236L378 270L362 308L400 354" stroke="#ff2b4f" stroke-opacity=".42" stroke-width="4" fill="none"/>
    <path class="corruption-pulse" d="M491 319L515 353L499 391L537 437" stroke="#ff2b4f" stroke-opacity=".42" stroke-width="2" fill="none"/>
    <path class="corruption-pulse" d="M628 402L652 436L636 474L674 520" stroke="#ff2b4f" stroke-opacity=".42" stroke-width="3" fill="none"/>
    <path class="corruption-pulse" d="M765 105L789 139L773 177L811 223" stroke="#ff2b4f" stroke-opacity=".42" stroke-width="4" fill="none"/>
    <path class="corruption-pulse" d="M112 188L136 222L120 260L158 306" stroke="#ff2b4f" stroke-opacity=".42" stroke-width="2" fill="none"/>
    <path class="corruption-pulse" d="M249 271L273 305L257 343L295 389" stroke="#ff2b4f" stroke-opacity=".42" stroke-width="3" fill="none"/>
    <path class="corruption-pulse" d="M386 354L410 388L394 426L432 472" stroke="#ff2b4f" stroke-opacity=".42" stroke-width="4" fill="none"/>
    <path class="corruption-pulse" d="M523 437L547 471L531 509L569 555" stroke="#ff2b4f" stroke-opacity=".42" stroke-width="2" fill="none"/>
    <path class="corruption-pulse" d="M660 140L684 174L668 212L706 258" stroke="#ff2b4f" stroke-opacity=".42" stroke-width="3" fill="none"/>
    <path class="corruption-pulse" d="M797 223L821 257L805 295L843 341" stroke="#ff2b4f" stroke-opacity=".42" stroke-width="4" fill="none"/>
    <circle class="pulsing-glow" cx="482" cy="292" r="176" fill="#23f7dd" fill-opacity=".12" filter="url(#glow)"/>
    <circle class="eye-glow-pulse" cx="438" cy="226" r="10" fill="#23f7dd" fill-opacity=".86" filter="url(#glow)"/>
    <circle class="eye-glow-pulse" cx="522" cy="226" r="10" fill="#23f7dd" fill-opacity=".86" filter="url(#glow)"/>
    <circle class="reactor-flicker" cx="482" cy="292" r="76" fill="#39ff88" fill-opacity="0.27" filter="url(#glow)"/>
    <circle class="corruption-pulse" cx="482" cy="292" r="142" stroke="#ff2b4f" stroke-opacity="0.49" stroke-width="9" fill="none"/>
    <path class="threat-indicator-pulse" d="M36 42H214L250 78H36Z" fill="#020713" fill-opacity=".78" stroke="#39ff88" stroke-width="2"/>
    <circle class="eye-glow-pulse" cx="144" cy="132" r="13" fill="#23f7dd" filter="url(#glow)"/>
      <circle class="eye-glow-pulse" cx="178" cy="136" r="13" fill="#23f7dd" filter="url(#glow)"/>
    <circle class="eye-glow-pulse" cx="256" cy="174" r="13" fill="#23f7dd" filter="url(#glow)"/>
      <circle class="eye-glow-pulse" cx="290" cy="178" r="13" fill="#23f7dd" filter="url(#glow)"/>
    <circle class="eye-glow-pulse" cx="368" cy="216" r="13" fill="#23f7dd" filter="url(#glow)"/>
      <circle class="eye-glow-pulse" cx="402" cy="220" r="13" fill="#23f7dd" filter="url(#glow)"/>
    <circle class="eye-glow-pulse" cx="480" cy="132" r="13" fill="#23f7dd" filter="url(#glow)"/>
      <circle class="eye-glow-pulse" cx="514" cy="136" r="13" fill="#23f7dd" filter="url(#glow)"/>
    <circle class="eye-glow-pulse" cx="592" cy="174" r="13" fill="#23f7dd" filter="url(#glow)"/>
      <circle class="eye-glow-pulse" cx="626" cy="178" r="13" fill="#23f7dd" filter="url(#glow)"/>
    <circle class="eye-glow-pulse" cx="704" cy="216" r="13" fill="#23f7dd" filter="url(#glow)"/>
      <circle class="eye-glow-pulse" cx="738" cy="220" r="13" fill="#23f7dd" filter="url(#glow)"/>
    <circle class="eye-glow-pulse" cx="816" cy="132" r="13" fill="#23f7dd" filter="url(#glow)"/>
      <circle class="eye-glow-pulse" cx="850" cy="136" r="13" fill="#23f7dd" filter="url(#glow)"/>
    <path class="corruption-pulse" d="M104 38L144 116L112 190M122 234L158 318" stroke="#ff2b4f" stroke-opacity=".7" stroke-width="7" stroke-dasharray="24 24" fill="none"/>
    <path class="corruption-pulse" d="M292 38L332 116L300 190M310 234L346 318" stroke="#ff2b4f" stroke-opacity=".7" stroke-width="7" stroke-dasharray="24 24" fill="none"/>
    <path class="corruption-pulse" d="M480 38L520 116L488 190M498 234L534 318" stroke="#ff2b4f" stroke-opacity=".7" stroke-width="7" stroke-dasharray="24 24" fill="none"/>
    <path class="corruption-pulse" d="M668 38L708 116L676 190M686 234L722 318" stroke="#ff2b4f" stroke-opacity=".7" stroke-width="7" stroke-dasharray="24 24" fill="none"/>
    <path class="corruption-pulse" d="M856 38L896 116L864 190M874 234L910 318" stroke="#ff2b4f" stroke-opacity=".7" stroke-width="7" stroke-dasharray="24 24" fill="none"/>
    <text class="data-waterfall" x="84" y="40" fill="#23f7dd" fill-opacity=".66" font-family="ui-monospace, SFMono-Regular, Menlo, Monaco, Consolas, monospace" font-size="14" font-weight="900">010011010</text>
    <text class="data-waterfall" x="130.58823529411765" y="74" fill="#23f7dd" fill-opacity=".66" font-family="ui-monospace, SFMono-Regular, Menlo, Monaco, Consolas, monospace" font-size="16" font-weight="900">101101001</text>
    <text class="data-waterfall" x="177.1764705882353" y="108" fill="#23f7dd" fill-opacity=".66" font-family="ui-monospace, SFMono-Regular, Menlo, Monaco, Consolas, monospace" font-size="18" font-weight="900">010011010</text>
    <text class="data-waterfall" x="223.76470588235293" y="40" fill="#23f7dd" fill-opacity=".66" font-family="ui-monospace, SFMono-Regular, Menlo, Monaco, Consolas, monospace" font-size="14" font-weight="900">101101001</text>
    <text class="data-waterfall" x="270.3529411764706" y="74" fill="#23f7dd" fill-opacity=".66" font-family="ui-monospace, SFMono-Regular, Menlo, Monaco, Consolas, monospace" font-size="16" font-weight="900">010011010</text>
    <text class="data-waterfall" x="316.94117647058823" y="108" fill="#23f7dd" fill-opacity=".66" font-family="ui-monospace, SFMono-Regular, Menlo, Monaco, Consolas, monospace" font-size="18" font-weight="900">101101001</text>
    <text class="data-waterfall" x="363.52941176470586" y="40" fill="#23f7dd" fill-opacity=".66" font-family="ui-monospace, SFMono-Regular, Menlo, Monaco, Consolas, monospace" font-size="14" font-weight="900">010011010</text>
    <text class="data-waterfall" x="410.11764705882354" y="74" fill="#23f7dd" fill-opacity=".66" font-family="ui-monospace, SFMono-Regular, Menlo, Monaco, Consolas, monospace" font-size="16" font-weight="900">101101001</text>
    <text class="data-waterfall" x="456.70588235294116" y="108" fill="#23f7dd" fill-opacity=".66" font-family="ui-monospace, SFMono-Regular, Menlo, Monaco, Consolas, monospace" font-size="18" font-weight="900">010011010</text>
    <text class="data-waterfall" x="503.2941176470588" y="40" fill="#23f7dd" fill-opacity=".66" font-family="ui-monospace, SFMono-Regular, Menlo, Monaco, Consolas, monospace" font-size="14" font-weight="900">101101001</text>
    <text class="data-waterfall" x="549.8823529411765" y="74" fill="#23f7dd" fill-opacity=".66" font-family="ui-monospace, SFMono-Regular, Menlo, Monaco, Consolas, monospace" font-size="16" font-weight="900">010011010</text>
    <text class="data-waterfall" x="596.4705882352941" y="108" fill="#23f7dd" fill-opacity=".66" font-family="ui-monospace, SFMono-Regular, Menlo, Monaco, Consolas, monospace" font-size="18" font-weight="900">101101001</text>
    <text class="data-waterfall" x="643.0588235294117" y="40" fill="#23f7dd" fill-opacity=".66" font-family="ui-monospace, SFMono-Regular, Menlo, Monaco, Consolas, monospace" font-size="14" font-weight="900">010011010</text>
    <text class="data-waterfall" x="689.6470588235294" y="74" fill="#23f7dd" fill-opacity=".66" font-family="ui-monospace, SFMono-Regular, Menlo, Monaco, Consolas, monospace" font-size="16" font-weight="900">101101001</text>
    <text class="data-waterfall" x="736.2352941176471" y="108" fill="#23f7dd" fill-opacity=".66" font-family="ui-monospace, SFMono-Regular, Menlo, Monaco, Consolas, monospace" font-size="18" font-weight="900">010011010</text>
    <text class="data-waterfall" x="782.8235294117646" y="40" fill="#23f7dd" fill-opacity=".66" font-family="ui-monospace, SFMono-Regular, Menlo, Monaco, Consolas, monospace" font-size="14" font-weight="900">101101001</text>
    <text class="data-waterfall" x="829.4117647058823" y="74" fill="#23f7dd" fill-opacity=".66" font-family="ui-monospace, SFMono-Regular, Menlo, Monaco, Consolas, monospace" font-size="16" font-weight="900">010011010</text>
    <text class="data-waterfall" x="876" y="108" fill="#23f7dd" fill-opacity=".66" font-family="ui-monospace, SFMono-Regular, Menlo, Monaco, Consolas, monospace" font-size="18" font-weight="900">101101001</text>
    <g class="lock-drift" opacity=".72">
      <path d="M90 104V94C90 76 118 76 118 94V104" stroke="#ff2b4f" stroke-width="4" fill="none"/>
      <rect x="82" y="104" width="44" height="34" rx="4" fill="#020713" fill-opacity=".38" stroke="#ff2b4f" stroke-width="4"/>
    </g>
    <g class="lock-drift" opacity=".72">
      <path d="M263 201V191C263 173 291 173 291 191V201" stroke="#ff2b4f" stroke-width="4" fill="none"/>
      <rect x="255" y="201" width="44" height="34" rx="4" fill="#020713" fill-opacity=".38" stroke="#ff2b4f" stroke-width="4"/>
    </g>
    <g class="lock-drift" opacity=".72">
      <path d="M436 298V288C436 270 464 270 464 288V298" stroke="#ff2b4f" stroke-width="4" fill="none"/>
      <rect x="428" y="298" width="44" height="34" rx="4" fill="#020713" fill-opacity=".38" stroke="#ff2b4f" stroke-width="4"/>
    </g>
    <g class="lock-drift" opacity=".72">
      <path d="M609 395V385C609 367 637 367 637 385V395" stroke="#ff2b4f" stroke-width="4" fill="none"/>
      <rect x="601" y="395" width="44" height="34" rx="4" fill="#020713" fill-opacity=".38" stroke="#ff2b4f" stroke-width="4"/>
    </g>
    <g class="lock-drift" opacity=".72">
      <path d="M782 122V112C782 94 810 94 810 112V122" stroke="#ff2b4f" stroke-width="4" fill="none"/>
      <rect x="774" y="122" width="44" height="34" rx="4" fill="#020713" fill-opacity=".38" stroke="#ff2b4f" stroke-width="4"/>
    </g>
    <circle class="corruption-particle" cx="40" cy="70" r="2" fill="#ff2b4f" fill-opacity=".58"/>
    <circle class="corruption-particle" cx="129" cy="201" r="3" fill="#ff2b4f" fill-opacity=".58"/>
    <circle class="corruption-particle" cx="218" cy="332" r="4" fill="#ff2b4f" fill-opacity=".58"/>
    <circle class="corruption-particle" cx="307" cy="463" r="5" fill="#ff2b4f" fill-opacity=".58"/>
    <circle class="corruption-particle" cx="396" cy="174" r="2" fill="#ff2b4f" fill-opacity=".58"/>
    <circle class="corruption-particle" cx="485" cy="305" r="3" fill="#ff2b4f" fill-opacity=".58"/>
    <circle class="corruption-particle" cx="574" cy="436" r="4" fill="#ff2b4f" fill-opacity=".58"/>
    <circle class="corruption-particle" cx="663" cy="147" r="5" fill="#ff2b4f" fill-opacity=".58"/>
    <circle class="corruption-particle" cx="752" cy="278" r="2" fill="#ff2b4f" fill-opacity=".58"/>
    <circle class="corruption-particle" cx="841" cy="409" r="3" fill="#ff2b4f" fill-opacity=".58"/>
    <circle class="corruption-particle" cx="50" cy="120" r="4" fill="#ff2b4f" fill-opacity=".58"/>
    <circle class="corruption-particle" cx="139" cy="251" r="5" fill="#ff2b4f" fill-opacity=".58"/>
    <circle class="corruption-particle" cx="228" cy="382" r="2" fill="#ff2b4f" fill-opacity=".58"/>
    <circle class="corruption-particle" cx="317" cy="93" r="3" fill="#ff2b4f" fill-opacity=".58"/>
    <circle class="corruption-particle" cx="406" cy="224" r="4" fill="#ff2b4f" fill-opacity=".58"/>
    <circle class="corruption-particle" cx="495" cy="355" r="5" fill="#ff2b4f" fill-opacity=".58"/>
    <circle class="corruption-particle" cx="584" cy="486" r="2" fill="#ff2b4f" fill-opacity=".58"/>
    <circle class="corruption-particle" cx="673" cy="197" r="3" fill="#ff2b4f" fill-opacity=".58"/>
    <circle class="corruption-particle" cx="762" cy="328" r="4" fill="#ff2b4f" fill-opacity=".58"/>
    <circle class="corruption-particle" cx="851" cy="459" r="5" fill="#ff2b4f" fill-opacity=".58"/>
    <circle class="corruption-particle" cx="60" cy="170" r="2" fill="#ff2b4f" fill-opacity=".58"/>
    <circle class="corruption-particle" cx="149" cy="301" r="3" fill="#ff2b4f" fill-opacity=".58"/>
    <circle class="corruption-particle" cx="238" cy="432" r="4" fill="#ff2b4f" fill-opacity=".58"/>
    <circle class="corruption-particle" cx="327" cy="143" r="5" fill="#ff2b4f" fill-opacity=".58"/>
    <circle class="corruption-particle" cx="416" cy="274" r="2" fill="#ff2b4f" fill-opacity=".58"/>
    <circle class="corruption-particle" cx="505" cy="405" r="3" fill="#ff2b4f" fill-opacity=".58"/>
    <circle class="corruption-particle" cx="594" cy="116" r="4" fill="#ff2b4f" fill-opacity=".58"/>
    <circle class="corruption-particle" cx="683" cy="247" r="5" fill="#ff2b4f" fill-opacity=".58"/>
    <circle class="corruption-particle" cx="772" cy="378" r="2" fill="#ff2b4f" fill-opacity=".58"/>
    <circle class="corruption-particle" cx="861" cy="89" r="3" fill="#ff2b4f" fill-opacity=".58"/>
    <circle class="corruption-particle" cx="70" cy="220" r="4" fill="#ff2b4f" fill-opacity=".58"/>
    <circle class="corruption-particle" cx="159" cy="351" r="5" fill="#ff2b4f" fill-opacity=".58"/>
    <circle class="corruption-particle" cx="248" cy="482" r="2" fill="#ff2b4f" fill-opacity=".58"/>
    <circle class="corruption-particle" cx="337" cy="193" r="3" fill="#ff2b4f" fill-opacity=".58"/>
    <circle class="corruption-particle" cx="426" cy="324" r="4" fill="#ff2b4f" fill-opacity=".58"/>
    <circle class="corruption-particle" cx="515" cy="455" r="5" fill="#ff2b4f" fill-opacity=".58"/>
    <circle class="corruption-particle" cx="604" cy="166" r="2" fill="#ff2b4f" fill-opacity=".58"/>
    <circle class="corruption-particle" cx="693" cy="297" r="3" fill="#ff2b4f" fill-opacity=".58"/>
    <circle class="corruption-particle" cx="782" cy="428" r="4" fill="#ff2b4f" fill-opacity=".58"/>
    <circle class="corruption-particle" cx="871" cy="139" r="5" fill="#ff2b4f" fill-opacity=".58"/>
    <circle class="corruption-particle" cx="80" cy="270" r="2" fill="#ff2b4f" fill-opacity=".58"/>
    <circle class="corruption-particle" cx="169" cy="401" r="3" fill="#ff2b4f" fill-opacity=".58"/>
    <circle class="corruption-particle" cx="258" cy="112" r="4" fill="#ff2b4f" fill-opacity=".58"/>
    <circle class="corruption-particle" cx="347" cy="243" r="5" fill="#ff2b4f" fill-opacity=".58"/>
    <circle class="corruption-particle" cx="436" cy="374" r="2" fill="#ff2b4f" fill-opacity=".58"/>
    <circle class="corruption-particle" cx="525" cy="85" r="3" fill="#ff2b4f" fill-opacity=".58"/>
    <circle class="corruption-particle" cx="614" cy="216" r="4" fill="#ff2b4f" fill-opacity=".58"/>
    <circle class="corruption-particle" cx="703" cy="347" r="5" fill="#ff2b4f" fill-opacity=".58"/>
    <circle class="corruption-particle" cx="792" cy="478" r="2" fill="#ff2b4f" fill-opacity=".58"/>
    <circle class="corruption-particle" cx="881" cy="189" r="3" fill="#ff2b4f" fill-opacity=".58"/>
    <path class="data-leak" d="M160 212C254 286 344 250 438 324C540 402 676 322 790 420" stroke="#39ff88" stroke-width="10" stroke-opacity=".58" stroke-dasharray="12 12" fill="none"/>
    <path class="data-leak" d="M196 276C330 354 454 300 564 382C660 454 780 410 902 470" stroke="#ff2b4f" stroke-width="8" stroke-opacity=".50" stroke-dasharray="10 14" fill="none"/>
    <path class="energy-movement" d="M-40 80C160 10 330 164 520 80C710 -4 850 148 1000 52" stroke="#39ff88" stroke-opacity=".64" stroke-width="3" stroke-linecap="round" stroke-dasharray="30 24" fill="none"/>
    <path class="energy-movement" d="M-40 143.33333333333334C160 73.33333333333334 330 227.33333333333334 520 143.33333333333334C710 59.33333333333334 850 211.33333333333334 1000 115.33333333333334" stroke="#39ff88" stroke-opacity=".64" stroke-width="4" stroke-linecap="round" stroke-dasharray="30 24" fill="none"/>
    <path class="energy-movement" d="M-40 206.66666666666669C160 136.66666666666669 330 290.6666666666667 520 206.66666666666669C710 122.66666666666669 850 274.6666666666667 1000 178.66666666666669" stroke="#39ff88" stroke-opacity=".64" stroke-width="5" stroke-linecap="round" stroke-dasharray="30 24" fill="none"/>
    <path class="energy-movement" d="M-40 270C160 200 330 354 520 270C710 186 850 338 1000 242" stroke="#39ff88" stroke-opacity=".64" stroke-width="6" stroke-linecap="round" stroke-dasharray="30 24" fill="none"/>
    <path class="energy-movement" d="M-40 333.33333333333337C160 263.33333333333337 330 417.33333333333337 520 333.33333333333337C710 249.33333333333337 850 401.33333333333337 1000 305.33333333333337" stroke="#39ff88" stroke-opacity=".64" stroke-width="3" stroke-linecap="round" stroke-dasharray="30 24" fill="none"/>
    <path class="energy-movement" d="M-40 396.6666666666667C160 326.6666666666667 330 480.6666666666667 520 396.6666666666667C710 312.6666666666667 850 464.6666666666667 1000 368.6666666666667" stroke="#39ff88" stroke-opacity=".64" stroke-width="4" stroke-linecap="round" stroke-dasharray="30 24" fill="none"/>
    <path class="energy-movement" d="M-40 460C160 390 330 544 520 460C710 376 850 528 1000 432" stroke="#39ff88" stroke-opacity=".64" stroke-width="5" stroke-linecap="round" stroke-dasharray="30 24" fill="none"/>
    <path class="threat-indicator-pulse" d="M92 468C248 404 414 512 576 430C708 362 816 410 934 352" stroke="#23f7dd" stroke-width="11" stroke-opacity=".68" stroke-dasharray="18 14" fill="none"/>
  </g>
  <g filter="url(#glow)">
    <text x="58" y="66" fill="#23f7dd" font-family="ui-monospace, SFMono-Regular, Menlo, Monaco, Consolas, monospace" font-size="20" font-weight="900">PHASE 3</text>
    <text x="58" y="92" fill="#f7fbff" font-family="ui-monospace, SFMono-Regular, Menlo, Monaco, Consolas, monospace" font-size="16" font-weight="900">7 Heads</text>
    <circle class="threat-indicator-pulse" cx="902" cy="58" r="25" fill="#39ff88" filter="url(#glow)"/>
  </g>
</svg>
