<svg width="960" height="540" viewBox="0 0 960 540" fill="none" xmlns="http://www.w3.org/2000/svg" role="img" aria-labelledby="title desc">
  <title id="title">The Data Leak Hydra 5 Heads</title>
  <desc id="desc">Mutated form: leaked keys grow into new heads and exposed ports split open.</desc>
  <defs>
    <linearGradient id="bg" x1="0" y1="0" x2="960" y2="540" gradientUnits="userSpaceOnUse">
      <stop offset="0" stop-color="#050b14"/>
      <stop offset=".48" stop-color="#12051c"/>
      <stop offset="1" stop-color="#061b22"/>
    </linearGradient>
    <radialGradient id="core" cx="50%" cy="46%" r="50%">
      <stop offset="0" stop-color="#39ff88" stop-opacity=".32"/>
      <stop offset=".45" stop-color="#ff2b4f" stop-opacity=".16"/>
      <stop offset="1" stop-color="#020713" stop-opacity="0"/>
    </radialGradient>
    <pattern id="scan" width="9" height="9" patternUnits="userSpaceOnUse">
      <path d="M0 0H9" stroke="#39ff88" stroke-opacity=".08"/>
    </pattern>
    <filter id="phaseImage">
      <feColorMatrix type="saturate" values="1.44"/>
      <feComponentTransfer>
        <feFuncR type="linear" slope="1.12"/>
        <feFuncG type="linear" slope="1.04"/>
        <feFuncB type="linear" slope="1.08"/>
      </feComponentTransfer>
    </filter>
    <filter id="glow" x="-30%" y="-30%" width="160%" height="160%">
      <feGaussianBlur stdDeviation="8" result="blur"/>
      <feMerge><feMergeNode in="blur"/><feMergeNode in="SourceGraphic"/></feMerge>
    </filter>
    <filter id="heavyGlow" x="-50%" y="-50%" width="200%" height="200%">
      <feGaussianBlur stdDeviation="16" result="blur"/>
      <feMerge><feMergeNode in="blur"/><feMergeNode in="SourceGraphic"/></feMerge>
    </filter>
    <style>
      @keyframes pulseGlow { 0%,100% { opacity: .46; } 50% { opacity: 1; } }
      @keyframes energyMove { to { stroke-dashoffset: -260; transform: translateX(34px); } }
      @keyframes scanMove { 0% { transform: translateY(-540px); } 100% { transform: translateY(540px); } }
      @keyframes reactorFlicker { 0%,100% { opacity: .34; transform: scale(.94); } 40% { opacity: .92; transform: scale(1.08); } 70% { opacity: .58; transform: scale(1.02); } }
      @keyframes corruptionPulse { 0%,100% { opacity: .22; } 50% { opacity: .78; } }
      @keyframes eyeGlowPulse { 0%,100% { opacity: .56; } 50% { opacity: 1; } }
      @keyframes threatPulse { 0%,100% { opacity: .52; } 50% { opacity: 1; } }
      @keyframes spin { to { transform: rotate(360deg); } }
      @keyframes sweep { 0% { transform: translateX(-960px); } 100% { transform: translateX(960px); } }
      @keyframes emberRise { 0% { transform: translateY(60px); opacity: 0; } 35% { opacity: .9; } 100% { transform: translateY(-220px); opacity: 0; } }
      @keyframes mouthFire { 0%,100% { opacity: .28; transform: scaleX(.92); } 50% { opacity: .88; transform: scaleX(1.08); } }
      @keyframes heatDistort { 0%,100% { transform: translateX(-12px); opacity: .22; } 50% { transform: translateX(14px); opacity: .62; } }
      @keyframes smokeDrift { 0% { transform: translateX(-30px); opacity: .04; } 50% { opacity: .18; } 100% { transform: translateX(42px); opacity: .04; } }
      @keyframes dataFall { 0% { transform: translateY(-120px); opacity: 0; } 20% { opacity: .9; } 100% { transform: translateY(560px); opacity: 0; } }
      @keyframes lockDrift { 0%,100% { transform: translate(0,0); } 50% { transform: translate(12px,-18px); } }
      @keyframes particleDrift { 0%,100% { transform: translate(0,0); opacity: .25; } 50% { transform: translate(20px,-26px); opacity: .8; } }
      @keyframes orbitPlanet { to { transform: rotate(360deg); } }
      @keyframes rotateEquation { 0%,100% { transform: rotate(-2deg); opacity: .34; } 50% { transform: rotate(3deg); opacity: .84; } }
      @keyframes voidDrift { 0%,100% { transform: translate(0,0); } 50% { transform: translate(-18px,16px); } }
      @keyframes apparitionFade { 0%,100% { opacity: .08; transform: scale(.92); } 50% { opacity: .46; transform: scale(1.08); } }
      @keyframes fragmentDrift { 0%,100% { transform: translateY(0) rotate(0deg); opacity: .18; } 50% { transform: translateY(-24px) rotate(8deg); opacity: .58; } }
      @keyframes chainMove { to { stroke-dashoffset: -180; } }
      @keyframes lightningFlash { 0%,100% { opacity: .15; } 45% { opacity: 1; } 52% { opacity: .25; } 60% { opacity: .9; } }
      @keyframes veinSurge { to { stroke-dashoffset: -140; } }
      @keyframes magicRotate { to { transform: rotate(360deg); } }
      @keyframes pageDrift { 0%,100% { transform: translate(0,0) rotate(0deg); opacity: .25; } 50% { transform: translate(18px,-24px) rotate(6deg); opacity: .74; } }
      @keyframes promptFloat { 0%,100% { transform: translateY(0); opacity: .25; } 50% { transform: translateY(-30px); opacity: .82; } }
      .pulsing-glow { animation: pulseGlow 1.96s ease-in-out infinite; }
      .energy-movement { animation: energyMove 4.44s linear infinite; }
      .scanline-movement { animation: scanMove 5.1s linear infinite; }
      .reactor-flicker { transform-box: fill-box; transform-origin: center; animation: reactorFlicker 1.44s steps(3,end) infinite; }
      .corruption-pulse { animation: corruptionPulse 2.36s ease-in-out infinite; }
      .eye-glow-pulse { animation: eyeGlowPulse 1.6600000000000001s ease-in-out infinite; }
      .threat-indicator-pulse { animation: threatPulse 1.54s ease-in-out infinite; }
      .spin { transform-origin: 480px 270px; animation: spin 10s linear infinite; }
      .sweep { animation: sweep 5.2s linear infinite; }
      .ember-rise { animation: emberRise 2.7s ease-out infinite; }
      .mouth-fire { transform-box: fill-box; transform-origin: center; animation: mouthFire 1.1400000000000001s ease-in-out infinite; }
      .heat-distortion { animation: heatDistort 2.32s ease-in-out infinite; }
      .smoke-drift { animation: smokeDrift 5.2s ease-in-out infinite; }
      .data-waterfall { animation: dataFall 3.84s linear infinite; }
      .lock-drift { animation: lockDrift 3.64s ease-in-out infinite; }
      .corruption-particle { animation: particleDrift 2.7600000000000002s ease-in-out infinite; }
      .data-leak { animation: energyMove 3.32s linear infinite; }
      .orbiting-planet { transform-origin: 480px 270px; animation: orbitPlanet 9.6s linear infinite; }
      .rotating-equation { transform-box: fill-box; transform-origin: center; animation: rotateEquation 4.32s ease-in-out infinite; }
      .void-particle-drift { animation: voidDrift 3.4s ease-in-out infinite; }
      .orbiting-face { transform-origin: 480px 270px; animation: orbitPlanet 10.2s linear infinite; }
      .apparition-fade { animation: apparitionFade 3.16s ease-in-out infinite; }
      .memory-fragment { animation: fragmentDrift 4.08s ease-in-out infinite; }
      .moving-chain { animation: chainMove 3.2399999999999998s linear infinite; }
      .lightning-arc { animation: lightningFlash 1.48s steps(2,end) infinite; }
      .glowing-vein { animation: veinSurge 2.7s linear infinite; }
      .magic-circle-rotate { transform-origin: 480px 286px; animation: magicRotate 11.2s linear infinite; }
      .spell-page-drift { animation: pageDrift 4.2s ease-in-out infinite; }
      .prompt-fragment { animation: promptFloat 3.28s ease-in-out infinite; }
    </style>
  </defs>
  <rect width="960" height="540" fill="url(#bg)"/>
  <image href="../boss_phases/data_leak_hydra_p2.png" x="0" y="0" width="960" height="540" preserveAspectRatio="xMidYMid slice" filter="url(#phaseImage)"/>
  <rect width="960" height="540" fill="url(#core)" opacity="0.42000000000000004"/>
  <rect class="corruption-pulse" width="960" height="540" fill="#ff2b4f" fill-opacity=".04"/>
  <rect width="960" height="540" fill="url(#scan)"/>
  <rect class="scanline-movement" x="0" y="-540" width="960" height="86" fill="#39ff88" fill-opacity=".10"/>
  <rect class="sweep" x="0" y="0" width="212" height="540" fill="#39ff88" fill-opacity=".045"/>
  <path class="spin" d="M84 270C204 32 756 32 876 270C756 508 204 508 84 270Z" stroke="#ff2b4f" stroke-opacity=".16" stroke-width="5" stroke-dasharray="26 18" fill="none"/>
  <g filter="url(#heavyGlow)">
    <path class="energy-movement" d="M-40 80C160 10 330 164 520 80C710 -4 850 148 1000 52" stroke="#23f7dd" stroke-opacity=".42" stroke-width="3" stroke-linecap="round" stroke-dasharray="30 24" fill="none"/>
    <path class="energy-movement" d="M-40 206.66666666666669C160 136.66666666666669 330 290.6666666666667 520 206.66666666666669C710 122.66666666666669 850 274.6666666666667 1000 178.66666666666669" stroke="#23f7dd" stroke-opacity=".42" stroke-width="4" stroke-linecap="round" stroke-dasharray="30 24" fill="none"/>
    <path class="energy-movement" d="M-40 333.33333333333337C160 263.33333333333337 330 417.33333333333337 520 333.33333333333337C710 249.33333333333337 850 401.33333333333337 1000 305.33333333333337" stroke="#23f7dd" stroke-opacity=".42" stroke-width="5" stroke-linecap="round" stroke-dasharray="30 24" fill="none"/>
    <path class="energy-movement" d="M-40 460C160 390 330 544 520 460C710 376 850 528 1000 432" stroke="#23f7dd" stroke-opacity=".42" stroke-width="6" stroke-linecap="round" stroke-dasharray="30 24" fill="none"/>
    <path class="corruption-pulse" d="M80 70L104 104L88 142L126 188" stroke="#ff2b4f" stroke-opacity=".42" stroke-width="2" fill="none"/>
    <path class="corruption-pulse" d="M217 153L241 187L225 225L263 271" stroke="#ff2b4f" stroke-opacity=".42" stroke-width="3" fill="none"/>
    <path class="corruption-pulse" d="M354 236L378 270L362 308L400 354" stroke="#ff2b4f" stroke-opacity=".42" stroke-width="4" fill="none"/>
    <path class="corruption-pulse" d="M491 319L515 353L499 391L537 437" stroke="#ff2b4f" stroke-opacity=".42" stroke-width="2" fill="none"/>
    <path class="corruption-pulse" d="M628 402L652 436L636 474L674 520" stroke="#ff2b4f" stroke-opacity=".42" stroke-width="3" fill="none"/>
    <path class="corruption-pulse" d="M765 105L789 139L773 177L811 223" stroke="#ff2b4f" stroke-opacity=".42" stroke-width="4" fill="none"/>
    <path class="corruption-pulse" d="M112 188L136 222L120 260L158 306" stroke="#ff2b4f" stroke-opacity=".42" stroke-width="2" fill="none"/>
    <path class="corruption-pulse" d="M249 271L273 305L257 343L295 389" stroke="#ff2b4f" stroke-opacity=".42" stroke-width="3" fill="none"/>
    <circle class="pulsing-glow" cx="482" cy="292" r="158" fill="#23f7dd" fill-opacity=".12" filter="url(#glow)"/>
    <circle class="eye-glow-pulse" cx="438" cy="226" r="9" fill="#23f7dd" fill-opacity=".86" filter="url(#glow)"/>
    <circle class="eye-glow-pulse" cx="522" cy="226" r="9" fill="#23f7dd" fill-opacity=".86" filter="url(#glow)"/>
    <circle class="reactor-flicker" cx="482" cy="292" r="62" fill="#39ff88" fill-opacity="0.22" filter="url(#glow)"/>
    <circle class="corruption-pulse" cx="482" cy="292" r="120" stroke="#ff2b4f" stroke-opacity="0.38" stroke-width="8" fill="none"/>
    <path class="threat-indicator-pulse" d="M36 42H214L250 78H36Z" fill="#020713" fill-opacity=".78" stroke="#39ff88" stroke-width="2"/>
    <circle class="eye-glow-pulse" cx="144" cy="132" r="12" fill="#23f7dd" filter="url(#glow)"/>
      <circle class="eye-glow-pulse" cx="178" cy="136" r="12" fill="#23f7dd" filter="url(#glow)"/>
    <circle class="eye-glow-pulse" cx="312" cy="174" r="12" fill="#23f7dd" filter="url(#glow)"/>
      <circle class="eye-glow-pulse" cx="346" cy="178" r="12" fill="#23f7dd" filter="url(#glow)"/>
    <circle class="eye-glow-pulse" cx="480" cy="216" r="12" fill="#23f7dd" filter="url(#glow)"/>
      <circle class="eye-glow-pulse" cx="514" cy="220" r="12" fill="#23f7dd" filter="url(#glow)"/>
    <circle class="eye-glow-pulse" cx="648" cy="132" r="12" fill="#23f7dd" filter="url(#glow)"/>
      <circle class="eye-glow-pulse" cx="682" cy="136" r="12" fill="#23f7dd" filter="url(#glow)"/>
    <circle class="eye-glow-pulse" cx="816" cy="174" r="12" fill="#23f7dd" filter="url(#glow)"/>
      <circle class="eye-glow-pulse" cx="850" cy="178" r="12" fill="#23f7dd" filter="url(#glow)"/>
    <path class="corruption-pulse" d="M104 38L144 116L112 190M122 234L158 318" stroke="#ff2b4f" stroke-opacity=".7" stroke-width="7" stroke-dasharray="24 24" fill="none"/>
    <path class="corruption-pulse" d="M292 38L332 116L300 190M310 234L346 318" stroke="#ff2b4f" stroke-opacity=".7" stroke-width="7" stroke-dasharray="24 24" fill="none"/>
    <path class="corruption-pulse" d="M480 38L520 116L488 190M498 234L534 318" stroke="#ff2b4f" stroke-opacity=".7" stroke-width="7" stroke-dasharray="24 24" fill="none"/>
    <path class="corruption-pulse" d="M668 38L708 116L676 190M686 234L722 318" stroke="#ff2b4f" stroke-opacity=".7" stroke-width="7" stroke-dasharray="24 24" fill="none"/>
    <path class="corruption-pulse" d="M856 38L896 116L864 190M874 234L910 318" stroke="#ff2b4f" stroke-opacity=".7" stroke-width="7" stroke-dasharray="24 24" fill="none"/>
    <text class="data-waterfall" x="84" y="40" fill="#23f7dd" fill-opacity=".66" font-family="ui-monospace, SFMono-Regular, Menlo, Monaco, Consolas, monospace" font-size="14" font-weight="900">010011010</text>
    <text class="data-waterfall" x="144.9230769230769" y="74" fill="#23f7dd" fill-opacity=".66" font-family="ui-monospace, SFMono-Regular, Menlo, Monaco, Consolas, monospace" font-size="16" font-weight="900">101101001</text>
    <text class="data-waterfall" x="205.84615384615384" y="108" fill="#23f7dd" fill-opacity=".66" font-family="ui-monospace, SFMono-Regular, Menlo, Monaco, Consolas, monospace" font-size="18" font-weight="900">010011010</text>
    <text class="data-waterfall" x="266.7692307692308" y="40" fill="#23f7dd" fill-opacity=".66" font-family="ui-monospace, SFMono-Regular, Menlo, Monaco, Consolas, monospace" font-size="14" font-weight="900">101101001</text>
    <text class="data-waterfall" x="327.6923076923077" y="74" fill="#23f7dd" fill-opacity=".66" font-family="ui-monospace, SFMono-Regular, Menlo, Monaco, Consolas, monospace" font-size="16" font-weight="900">010011010</text>
    <text class="data-waterfall" x="388.6153846153846" y="108" fill="#23f7dd" fill-opacity=".66" font-family="ui-monospace, SFMono-Regular, Menlo, Monaco, Consolas, monospace" font-size="18" font-weight="900">101101001</text>
    <text class="data-waterfall" x="449.53846153846155" y="40" fill="#23f7dd" fill-opacity=".66" font-family="ui-monospace, SFMono-Regular, Menlo, Monaco, Consolas, monospace" font-size="14" font-weight="900">010011010</text>
    <text class="data-waterfall" x="510.46153846153845" y="74" fill="#23f7dd" fill-opacity=".66" font-family="ui-monospace, SFMono-Regular, Menlo, Monaco, Consolas, monospace" font-size="16" font-weight="900">101101001</text>
    <text class="data-waterfall" x="571.3846153846154" y="108" fill="#23f7dd" fill-opacity=".66" font-family="ui-monospace, SFMono-Regular, Menlo, Monaco, Consolas, monospace" font-size="18" font-weight="900">010011010</text>
    <text class="data-waterfall" x="632.3076923076923" y="40" fill="#23f7dd" fill-opacity=".66" font-family="ui-monospace, SFMono-Regular, Menlo, Monaco, Consolas, monospace" font-size="14" font-weight="900">101101001</text>
    <text class="data-waterfall" x="693.2307692307692" y="74" fill="#23f7dd" fill-opacity=".66" font-family="ui-monospace, SFMono-Regular, Menlo, Monaco, Consolas, monospace" font-size="16" font-weight="900">010011010</text>
    <text class="data-waterfall" x="754.1538461538461" y="108" fill="#23f7dd" fill-opacity=".66" font-family="ui-monospace, SFMono-Regular, Menlo, Monaco, Consolas, monospace" font-size="18" font-weight="900">101101001</text>
    <text class="data-waterfall" x="815.0769230769231" y="40" fill="#23f7dd" fill-opacity=".66" font-family="ui-monospace, SFMono-Regular, Menlo, Monaco, Consolas, monospace" font-size="14" font-weight="900">010011010</text>
    <text class="data-waterfall" x="876" y="74" fill="#23f7dd" fill-opacity=".66" font-family="ui-monospace, SFMono-Regular, Menlo, Monaco, Consolas, monospace" font-size="16" font-weight="900">101101001</text>
    <g class="lock-drift" opacity=".72">
      <path d="M90 104V94C90 76 118 76 118 94V104" stroke="#ff2b4f" stroke-width="4" fill="none"/>
      <rect x="82" y="104" width="44" height="34" rx="4" fill="#020713" fill-opacity=".38" stroke="#ff2b4f" stroke-width="4"/>
    </g>
    <g class="lock-drift" opacity=".72">
      <path d="M263 201V191C263 173 291 173 291 191V201" stroke="#ff2b4f" stroke-width="4" fill="none"/>
      <rect x="255" y="201" width="44" height="34" rx="4" fill="#020713" fill-opacity=".38" stroke="#ff2b4f" stroke-width="4"/>
    </g>
    <g class="lock-drift" opacity=".72">
      <path d="M436 298V288C436 270 464 270 464 288V298" stroke="#ff2b4f" stroke-width="4" fill="none"/>
      <rect x="428" y="298" width="44" height="34" rx="4" fill="#020713" fill-opacity=".38" stroke="#ff2b4f" stroke-width="4"/>
    </g>
    <g class="lock-drift" opacity=".72">
      <path d="M609 395V385C609 367 637 367 637 385V395" stroke="#ff2b4f" stroke-width="4" fill="none"/>
      <rect x="601" y="395" width="44" height="34" rx="4" fill="#020713" fill-opacity=".38" stroke="#ff2b4f" stroke-width="4"/>
    </g>
    <circle class="corruption-particle" cx="40" cy="70" r="2" fill="#ff2b4f" fill-opacity=".58"/>
    <circle class="corruption-particle" cx="129" cy="201" r="3" fill="#ff2b4f" fill-opacity=".58"/>
    <circle class="corruption-particle" cx="218" cy="332" r="4" fill="#ff2b4f" fill-opacity=".58"/>
    <circle class="corruption-particle" cx="307" cy="463" r="5" fill="#ff2b4f" fill-opacity=".58"/>
    <circle class="corruption-particle" cx="396" cy="174" r="2" fill="#ff2b4f" fill-opacity=".58"/>
    <circle class="corruption-particle" cx="485" cy="305" r="3" fill="#ff2b4f" fill-opacity=".58"/>
    <circle class="corruption-particle" cx="574" cy="436" r="4" fill="#ff2b4f" fill-opacity=".58"/>
    <circle class="corruption-particle" cx="663" cy="147" r="5" fill="#ff2b4f" fill-opacity=".58"/>
    <circle class="corruption-particle" cx="752" cy="278" r="2" fill="#ff2b4f" fill-opacity=".58"/>
    <circle class="corruption-particle" cx="841" cy="409" r="3" fill="#ff2b4f" fill-opacity=".58"/>
    <circle class="corruption-particle" cx="50" cy="120" r="4" fill="#ff2b4f" fill-opacity=".58"/>
    <circle class="corruption-particle" cx="139" cy="251" r="5" fill="#ff2b4f" fill-opacity=".58"/>
    <circle class="corruption-particle" cx="228" cy="382" r="2" fill="#ff2b4f" fill-opacity=".58"/>
    <circle class="corruption-particle" cx="317" cy="93" r="3" fill="#ff2b4f" fill-opacity=".58"/>
    <circle class="corruption-particle" cx="406" cy="224" r="4" fill="#ff2b4f" fill-opacity=".58"/>
    <circle class="corruption-particle" cx="495" cy="355" r="5" fill="#ff2b4f" fill-opacity=".58"/>
    <circle class="corruption-particle" cx="584" cy="486" r="2" fill="#ff2b4f" fill-opacity=".58"/>
    <circle class="corruption-particle" cx="673" cy="197" r="3" fill="#ff2b4f" fill-opacity=".58"/>
    <circle class="corruption-particle" cx="762" cy="328" r="4" fill="#ff2b4f" fill-opacity=".58"/>
    <circle class="corruption-particle" cx="851" cy="459" r="5" fill="#ff2b4f" fill-opacity=".58"/>
    <circle class="corruption-particle" cx="60" cy="170" r="2" fill="#ff2b4f" fill-opacity=".58"/>
    <circle class="corruption-particle" cx="149" cy="301" r="3" fill="#ff2b4f" fill-opacity=".58"/>
    <circle class="corruption-particle" cx="238" cy="432" r="4" fill="#ff2b4f" fill-opacity=".58"/>
    <circle class="corruption-particle" cx="327" cy="143" r="5" fill="#ff2b4f" fill-opacity=".58"/>
    <circle class="corruption-particle" cx="416" cy="274" r="2" fill="#ff2b4f" fill-opacity=".58"/>
    <circle class="corruption-particle" cx="505" cy="405" r="3" fill="#ff2b4f" fill-opacity=".58"/>
    <circle class="corruption-particle" cx="594" cy="116" r="4" fill="#ff2b4f" fill-opacity=".58"/>
    <circle class="corruption-particle" cx="683" cy="247" r="5" fill="#ff2b4f" fill-opacity=".58"/>
    <circle class="corruption-particle" cx="772" cy="378" r="2" fill="#ff2b4f" fill-opacity=".58"/>
    <circle class="corruption-particle" cx="861" cy="89" r="3" fill="#ff2b4f" fill-opacity=".58"/>
    <circle class="corruption-particle" cx="70" cy="220" r="4" fill="#ff2b4f" fill-opacity=".58"/>
    <circle class="corruption-particle" cx="159" cy="351" r="5" fill="#ff2b4f" fill-opacity=".58"/>
    <circle class="corruption-particle" cx="248" cy="482" r="2" fill="#ff2b4f" fill-opacity=".58"/>
    <circle class="corruption-particle" cx="337" cy="193" r="3" fill="#ff2b4f" fill-opacity=".58"/>
    <circle class="corruption-particle" cx="426" cy="324" r="4" fill="#ff2b4f" fill-opacity=".58"/>
    <circle class="corruption-particle" cx="515" cy="455" r="5" fill="#ff2b4f" fill-opacity=".58"/>
    <circle class="corruption-particle" cx="604" cy="166" r="2" fill="#ff2b4f" fill-opacity=".58"/>
    <circle class="corruption-particle" cx="693" cy="297" r="3" fill="#ff2b4f" fill-opacity=".58"/>
    <circle class="corruption-particle" cx="782" cy="428" r="4" fill="#ff2b4f" fill-opacity=".58"/>
    <circle class="corruption-particle" cx="871" cy="139" r="5" fill="#ff2b4f" fill-opacity=".58"/>
    <path class="data-leak" d="M160 212C254 286 344 250 438 324C540 402 676 322 790 420" stroke="#39ff88" stroke-width="9" stroke-opacity=".58" stroke-dasharray="12 12" fill="none"/>
    <path class="data-leak" d="M196 276C330 354 454 300 564 382C660 454 780 410 902 470" stroke="#ff2b4f" stroke-width="7" stroke-opacity=".50" stroke-dasharray="10 14" fill="none"/>
    <path class="energy-movement" d="M-40 80C160 10 330 164 520 80C710 -4 850 148 1000 52" stroke="#39ff88" stroke-opacity=".64" stroke-width="3" stroke-linecap="round" stroke-dasharray="30 24" fill="none"/>
    <path class="energy-movement" d="M-40 156C160 86 330 240 520 156C710 72 850 224 1000 128" stroke="#39ff88" stroke-opacity=".64" stroke-width="4" stroke-linecap="round" stroke-dasharray="30 24" fill="none"/>
    <path class="energy-movement" d="M-40 232C160 162 330 316 520 232C710 148 850 300 1000 204" stroke="#39ff88" stroke-opacity=".64" stroke-width="5" stroke-linecap="round" stroke-dasharray="30 24" fill="none"/>
    <path class="energy-movement" d="M-40 308C160 238 330 392 520 308C710 224 850 376 1000 280" stroke="#39ff88" stroke-opacity=".64" stroke-width="6" stroke-linecap="round" stroke-dasharray="30 24" fill="none"/>
    <path class="energy-movement" d="M-40 384C160 314 330 468 520 384C710 300 850 452 1000 356" stroke="#39ff88" stroke-opacity=".64" stroke-width="3" stroke-linecap="round" stroke-dasharray="30 24" fill="none"/>
    <path class="energy-movement" d="M-40 460C160 390 330 544 520 460C710 376 850 528 1000 432" stroke="#39ff88" stroke-opacity=".64" stroke-width="4" stroke-linecap="round" stroke-dasharray="30 24" fill="none"/>
    <path class="threat-indicator-pulse" d="M92 468C248 404 414 512 576 430C708 362 816 410 934 352" stroke="#23f7dd" stroke-width="10" stroke-opacity=".68" stroke-dasharray="18 14" fill="none"/>
  </g>
  <g filter="url(#glow)">
    <text x="58" y="66" fill="#23f7dd" font-family="ui-monospace, SFMono-Regular, Menlo, Monaco, Consolas, monospace" font-size="20" font-weight="900">PHASE 2</text>
    <text x="58" y="92" fill="#f7fbff" font-family="ui-monospace, SFMono-Regular, Menlo, Monaco, Consolas, monospace" font-size="16" font-weight="900">5 Heads</text>
    <circle class="threat-indicator-pulse" cx="902" cy="58" r="22" fill="#39ff88" filter="url(#glow)"/>
  </g>
</svg>
