<svg width="960" height="540" viewBox="0 0 960 540" fill="none" xmlns="http://www.w3.org/2000/svg" role="img" aria-labelledby="title desc">
  <title id="title">The Overfitted Beast Mutation Surge</title>
  <desc id="desc">Corrupted form: memorized examples burst through its skin as jagged shards.</desc>
  <defs>
    <linearGradient id="bg" x1="0" y1="0" x2="960" y2="540" gradientUnits="userSpaceOnUse">
      <stop offset="0" stop-color="#050b14"/>
      <stop offset=".48" stop-color="#12051c"/>
      <stop offset="1" stop-color="#061b22"/>
    </linearGradient>
    <radialGradient id="core" cx="50%" cy="46%" r="50%">
      <stop offset="0" stop-color="#ff3b6b" stop-opacity=".32"/>
      <stop offset=".45" stop-color="#ffe95e" stop-opacity=".16"/>
      <stop offset="1" stop-color="#020713" stop-opacity="0"/>
    </radialGradient>
    <pattern id="scan" width="9" height="9" patternUnits="userSpaceOnUse">
      <path d="M0 0H9" stroke="#ff3b6b" stroke-opacity=".08"/>
    </pattern>
    <filter id="phaseImage">
      <feColorMatrix type="saturate" values="1.6600000000000001"/>
      <feComponentTransfer>
        <feFuncR type="linear" slope="1.18"/>
        <feFuncG type="linear" slope="1.06"/>
        <feFuncB type="linear" slope="1.12"/>
      </feComponentTransfer>
    </filter>
    <filter id="glow" x="-30%" y="-30%" width="160%" height="160%">
      <feGaussianBlur stdDeviation="8" result="blur"/>
      <feMerge><feMergeNode in="blur"/><feMergeNode in="SourceGraphic"/></feMerge>
    </filter>
    <filter id="heavyGlow" x="-50%" y="-50%" width="200%" height="200%">
      <feGaussianBlur stdDeviation="16" result="blur"/>
      <feMerge><feMergeNode in="blur"/><feMergeNode in="SourceGraphic"/></feMerge>
    </filter>
    <style>
      @keyframes pulseGlow { 0%,100% { opacity: .46; } 50% { opacity: 1; } }
      @keyframes energyMove { to { stroke-dashoffset: -260; transform: translateX(34px); } }
      @keyframes scanMove { 0% { transform: translateY(-540px); } 100% { transform: translateY(540px); } }
      @keyframes reactorFlicker { 0%,100% { opacity: .34; transform: scale(.94); } 40% { opacity: .92; transform: scale(1.08); } 70% { opacity: .58; transform: scale(1.02); } }
      @keyframes corruptionPulse { 0%,100% { opacity: .22; } 50% { opacity: .78; } }
      @keyframes eyeGlowPulse { 0%,100% { opacity: .56; } 50% { opacity: 1; } }
      @keyframes threatPulse { 0%,100% { opacity: .52; } 50% { opacity: 1; } }
      @keyframes spin { to { transform: rotate(360deg); } }
      @keyframes sweep { 0% { transform: translateX(-960px); } 100% { transform: translateX(960px); } }
      @keyframes emberRise { 0% { transform: translateY(60px); opacity: 0; } 35% { opacity: .9; } 100% { transform: translateY(-220px); opacity: 0; } }
      @keyframes mouthFire { 0%,100% { opacity: .28; transform: scaleX(.92); } 50% { opacity: .88; transform: scaleX(1.08); } }
      @keyframes heatDistort { 0%,100% { transform: translateX(-12px); opacity: .22; } 50% { transform: translateX(14px); opacity: .62; } }
      @keyframes smokeDrift { 0% { transform: translateX(-30px); opacity: .04; } 50% { opacity: .18; } 100% { transform: translateX(42px); opacity: .04; } }
      @keyframes dataFall { 0% { transform: translateY(-120px); opacity: 0; } 20% { opacity: .9; } 100% { transform: translateY(560px); opacity: 0; } }
      @keyframes lockDrift { 0%,100% { transform: translate(0,0); } 50% { transform: translate(12px,-18px); } }
      @keyframes particleDrift { 0%,100% { transform: translate(0,0); opacity: .25; } 50% { transform: translate(20px,-26px); opacity: .8; } }
      @keyframes orbitPlanet { to { transform: rotate(360deg); } }
      @keyframes rotateEquation { 0%,100% { transform: rotate(-2deg); opacity: .34; } 50% { transform: rotate(3deg); opacity: .84; } }
      @keyframes voidDrift { 0%,100% { transform: translate(0,0); } 50% { transform: translate(-18px,16px); } }
      @keyframes apparitionFade { 0%,100% { opacity: .08; transform: scale(.92); } 50% { opacity: .46; transform: scale(1.08); } }
      @keyframes fragmentDrift { 0%,100% { transform: translateY(0) rotate(0deg); opacity: .18; } 50% { transform: translateY(-24px) rotate(8deg); opacity: .58; } }
      @keyframes chainMove { to { stroke-dashoffset: -180; } }
      @keyframes lightningFlash { 0%,100% { opacity: .15; } 45% { opacity: 1; } 52% { opacity: .25; } 60% { opacity: .9; } }
      @keyframes veinSurge { to { stroke-dashoffset: -140; } }
      @keyframes magicRotate { to { transform: rotate(360deg); } }
      @keyframes pageDrift { 0%,100% { transform: translate(0,0) rotate(0deg); opacity: .25; } 50% { transform: translate(18px,-24px) rotate(6deg); opacity: .74; } }
      @keyframes promptFloat { 0%,100% { transform: translateY(0); opacity: .25; } 50% { transform: translateY(-30px); opacity: .82; } }
      .pulsing-glow { animation: pulseGlow 1.7399999999999998s ease-in-out infinite; }
      .energy-movement { animation: energyMove 3.9600000000000004s linear infinite; }
      .scanline-movement { animation: scanMove 4.75s linear infinite; }
      .reactor-flicker { transform-box: fill-box; transform-origin: center; animation: reactorFlicker 1.26s steps(3,end) infinite; }
      .corruption-pulse { animation: corruptionPulse 2.1399999999999997s ease-in-out infinite; }
      .eye-glow-pulse { animation: eyeGlowPulse 1.44s ease-in-out infinite; }
      .threat-indicator-pulse { animation: threatPulse 1.3599999999999999s ease-in-out infinite; }
      .spin { transform-origin: 480px 270px; animation: spin 8s linear infinite; }
      .sweep { animation: sweep 4.8s linear infinite; }
      .ember-rise { animation: emberRise 2.35s ease-out infinite; }
      .mouth-fire { transform-box: fill-box; transform-origin: center; animation: mouthFire 0.96s ease-in-out infinite; }
      .heat-distortion { animation: heatDistort 2.08s ease-in-out infinite; }
      .smoke-drift { animation: smokeDrift 4.9s ease-in-out infinite; }
      .data-waterfall { animation: dataFall 3.4599999999999995s linear infinite; }
      .lock-drift { animation: lockDrift 3.3600000000000003s ease-in-out infinite; }
      .corruption-particle { animation: particleDrift 2.54s ease-in-out infinite; }
      .data-leak { animation: energyMove 2.98s linear infinite; }
      .orbiting-planet { transform-origin: 480px 270px; animation: orbitPlanet 8.4s linear infinite; }
      .rotating-equation { transform-box: fill-box; transform-origin: center; animation: rotateEquation 3.98s ease-in-out infinite; }
      .void-particle-drift { animation: voidDrift 3.1s ease-in-out infinite; }
      .orbiting-face { transform-origin: 480px 270px; animation: orbitPlanet 8.8s linear infinite; }
      .apparition-fade { animation: apparitionFade 2.94s ease-in-out infinite; }
      .memory-fragment { animation: fragmentDrift 3.8199999999999994s ease-in-out infinite; }
      .moving-chain { animation: chainMove 2.96s linear infinite; }
      .lightning-arc { animation: lightningFlash 1.32s steps(2,end) infinite; }
      .glowing-vein { animation: veinSurge 2.45s linear infinite; }
      .magic-circle-rotate { transform-origin: 480px 286px; animation: magicRotate 9.8s linear infinite; }
      .spell-page-drift { animation: pageDrift 3.9s ease-in-out infinite; }
      .prompt-fragment { animation: promptFloat 3.0199999999999996s ease-in-out infinite; }
    </style>
  </defs>
  <rect width="960" height="540" fill="url(#bg)"/>
  <image href="../boss_phases/overfitted_beast_p3.png" x="0" y="0" width="960" height="540" preserveAspectRatio="xMidYMid slice" filter="url(#phaseImage)"/>
  <rect width="960" height="540" fill="url(#core)" opacity="0.5"/>
  <rect class="corruption-pulse" width="960" height="540" fill="#ffe95e" fill-opacity=".12"/>
  <rect width="960" height="540" fill="url(#scan)"/>
  <rect class="scanline-movement" x="0" y="-540" width="960" height="86" fill="#ff3b6b" fill-opacity=".10"/>
  <rect class="sweep" x="0" y="0" width="258" height="540" fill="#ff3b6b" fill-opacity=".045"/>
  <path class="spin" d="M84 270C204 32 756 32 876 270C756 508 204 508 84 270Z" stroke="#ffe95e" stroke-opacity=".16" stroke-width="6" stroke-dasharray="26 18" fill="none"/>
  <g filter="url(#heavyGlow)">
    <path class="energy-movement" d="M-40 80C160 10 330 164 520 80C710 -4 850 148 1000 52" stroke="#23f7dd" stroke-opacity=".42" stroke-width="3" stroke-linecap="round" stroke-dasharray="30 24" fill="none"/>
    <path class="energy-movement" d="M-40 175C160 105 330 259 520 175C710 91 850 243 1000 147" stroke="#23f7dd" stroke-opacity=".42" stroke-width="4" stroke-linecap="round" stroke-dasharray="30 24" fill="none"/>
    <path class="energy-movement" d="M-40 270C160 200 330 354 520 270C710 186 850 338 1000 242" stroke="#23f7dd" stroke-opacity=".42" stroke-width="5" stroke-linecap="round" stroke-dasharray="30 24" fill="none"/>
    <path class="energy-movement" d="M-40 365C160 295 330 449 520 365C710 281 850 433 1000 337" stroke="#23f7dd" stroke-opacity=".42" stroke-width="6" stroke-linecap="round" stroke-dasharray="30 24" fill="none"/>
    <path class="energy-movement" d="M-40 460C160 390 330 544 520 460C710 376 850 528 1000 432" stroke="#23f7dd" stroke-opacity=".42" stroke-width="3" stroke-linecap="round" stroke-dasharray="30 24" fill="none"/>
    <path class="corruption-pulse" d="M80 70L104 104L88 142L126 188" stroke="#ffe95e" stroke-opacity=".42" stroke-width="2" fill="none"/>
    <path class="corruption-pulse" d="M217 153L241 187L225 225L263 271" stroke="#ffe95e" stroke-opacity=".42" stroke-width="3" fill="none"/>
    <path class="corruption-pulse" d="M354 236L378 270L362 308L400 354" stroke="#ffe95e" stroke-opacity=".42" stroke-width="4" fill="none"/>
    <path class="corruption-pulse" d="M491 319L515 353L499 391L537 437" stroke="#ffe95e" stroke-opacity=".42" stroke-width="2" fill="none"/>
    <path class="corruption-pulse" d="M628 402L652 436L636 474L674 520" stroke="#ffe95e" stroke-opacity=".42" stroke-width="3" fill="none"/>
    <path class="corruption-pulse" d="M765 105L789 139L773 177L811 223" stroke="#ffe95e" stroke-opacity=".42" stroke-width="4" fill="none"/>
    <path class="corruption-pulse" d="M112 188L136 222L120 260L158 306" stroke="#ffe95e" stroke-opacity=".42" stroke-width="2" fill="none"/>
    <path class="corruption-pulse" d="M249 271L273 305L257 343L295 389" stroke="#ffe95e" stroke-opacity=".42" stroke-width="3" fill="none"/>
    <path class="corruption-pulse" d="M386 354L410 388L394 426L432 472" stroke="#ffe95e" stroke-opacity=".42" stroke-width="4" fill="none"/>
    <path class="corruption-pulse" d="M523 437L547 471L531 509L569 555" stroke="#ffe95e" stroke-opacity=".42" stroke-width="2" fill="none"/>
    <path class="corruption-pulse" d="M660 140L684 174L668 212L706 258" stroke="#ffe95e" stroke-opacity=".42" stroke-width="3" fill="none"/>
    <path class="corruption-pulse" d="M797 223L821 257L805 295L843 341" stroke="#ffe95e" stroke-opacity=".42" stroke-width="4" fill="none"/>
    <circle class="pulsing-glow" cx="482" cy="292" r="176" fill="#23f7dd" fill-opacity=".12" filter="url(#glow)"/>
    <circle class="eye-glow-pulse" cx="438" cy="226" r="10" fill="#23f7dd" fill-opacity=".86" filter="url(#glow)"/>
    <circle class="eye-glow-pulse" cx="522" cy="226" r="10" fill="#23f7dd" fill-opacity=".86" filter="url(#glow)"/>
    <circle class="reactor-flicker" cx="482" cy="292" r="76" fill="#ff3b6b" fill-opacity="0.27" filter="url(#glow)"/>
    <circle class="corruption-pulse" cx="482" cy="292" r="142" stroke="#ffe95e" stroke-opacity="0.49" stroke-width="9" fill="none"/>
    <path class="threat-indicator-pulse" d="M36 42H214L250 78H36Z" fill="#020713" fill-opacity=".78" stroke="#ff3b6b" stroke-width="2"/>
    <path class="corruption-pulse" d="M70 42L138 162M160 214L218 360" stroke="#ffe95e" stroke-opacity=".76" stroke-width="11" stroke-dasharray="34 28" fill="none"/>
    <path class="corruption-pulse" d="M208 42L276 162M298 214L356 360" stroke="#ffe95e" stroke-opacity=".76" stroke-width="11" stroke-dasharray="34 28" fill="none"/>
    <path class="corruption-pulse" d="M346 42L414 162M436 214L494 360" stroke="#ffe95e" stroke-opacity=".76" stroke-width="11" stroke-dasharray="34 28" fill="none"/>
    <path class="corruption-pulse" d="M484 42L552 162M574 214L632 360" stroke="#ffe95e" stroke-opacity=".76" stroke-width="11" stroke-dasharray="34 28" fill="none"/>
    <path class="corruption-pulse" d="M622 42L690 162M712 214L770 360" stroke="#ffe95e" stroke-opacity=".76" stroke-width="11" stroke-dasharray="34 28" fill="none"/>
    <path class="corruption-pulse" d="M760 42L828 162M850 214L908 360" stroke="#ffe95e" stroke-opacity=".76" stroke-width="11" stroke-dasharray="34 28" fill="none"/>
    <path class="corruption-pulse" d="M898 42L966 162M988 214L1046 360" stroke="#ffe95e" stroke-opacity=".76" stroke-width="11" stroke-dasharray="34 28" fill="none"/>
    <path class="corruption-pulse" d="M112 118L158 94L194 152L128 176Z" fill="#ff3b6b" fill-opacity=".18" stroke="#23f7dd" stroke-width="3"/>
    <path class="corruption-pulse" d="M221 189L267 165L303 223L237 247Z" fill="#ff3b6b" fill-opacity=".18" stroke="#23f7dd" stroke-width="3"/>
    <path class="corruption-pulse" d="M330 260L376 236L412 294L346 318Z" fill="#ff3b6b" fill-opacity=".18" stroke="#23f7dd" stroke-width="3"/>
    <path class="corruption-pulse" d="M439 331L485 307L521 365L455 389Z" fill="#ff3b6b" fill-opacity=".18" stroke="#23f7dd" stroke-width="3"/>
    <path class="corruption-pulse" d="M548 402L594 378L630 436L564 460Z" fill="#ff3b6b" fill-opacity=".18" stroke="#23f7dd" stroke-width="3"/>
    <path class="corruption-pulse" d="M657 143L703 119L739 177L673 201Z" fill="#ff3b6b" fill-opacity=".18" stroke="#23f7dd" stroke-width="3"/>
    <path class="corruption-pulse" d="M766 214L812 190L848 248L782 272Z" fill="#ff3b6b" fill-opacity=".18" stroke="#23f7dd" stroke-width="3"/>
    <path class="corruption-pulse" d="M115 285L161 261L197 319L131 343Z" fill="#ff3b6b" fill-opacity=".18" stroke="#23f7dd" stroke-width="3"/>
    <path class="corruption-pulse" d="M224 356L270 332L306 390L240 414Z" fill="#ff3b6b" fill-opacity=".18" stroke="#23f7dd" stroke-width="3"/>
    <path class="corruption-pulse" d="M333 427L379 403L415 461L349 485Z" fill="#ff3b6b" fill-opacity=".18" stroke="#23f7dd" stroke-width="3"/>
    <path class="corruption-pulse" d="M442 168L488 144L524 202L458 226Z" fill="#ff3b6b" fill-opacity=".18" stroke="#23f7dd" stroke-width="3"/>
    <path class="corruption-pulse" d="M551 239L597 215L633 273L567 297Z" fill="#ff3b6b" fill-opacity=".18" stroke="#23f7dd" stroke-width="3"/>
    <path class="corruption-pulse" d="M660 310L706 286L742 344L676 368Z" fill="#ff3b6b" fill-opacity=".18" stroke="#23f7dd" stroke-width="3"/>
    <path class="corruption-pulse" d="M769 381L815 357L851 415L785 439Z" fill="#ff3b6b" fill-opacity=".18" stroke="#23f7dd" stroke-width="3"/>
    <path class="corruption-pulse" d="M118 122L164 98L200 156L134 180Z" fill="#ff3b6b" fill-opacity=".18" stroke="#23f7dd" stroke-width="3"/>
    <path class="corruption-pulse" d="M227 193L273 169L309 227L243 251Z" fill="#ff3b6b" fill-opacity=".18" stroke="#23f7dd" stroke-width="3"/>
    <path class="corruption-pulse" d="M336 264L382 240L418 298L352 322Z" fill="#ff3b6b" fill-opacity=".18" stroke="#23f7dd" stroke-width="3"/>
    <path class="corruption-pulse" d="M445 335L491 311L527 369L461 393Z" fill="#ff3b6b" fill-opacity=".18" stroke="#23f7dd" stroke-width="3"/>
    <path class="moving-chain" d="M42 96C224 160 334 104 490 174C632 238 742 170 918 236" stroke="#ffe95e" stroke-width="11" stroke-opacity=".55" stroke-dasharray="18 14" fill="none"/>
    <path class="lightning-arc" d="M128 82L210 166L178 238L286 330L230 436M832 76L742 164L782 248L672 346L728 466" stroke="#23f7dd" stroke-width="7" stroke-opacity=".78" fill="none"/>
    <path class="glowing-vein" d="M262 270C392 226 512 332 690 282M244 370C398 324 542 438 760 384" stroke="#ff3b6b" stroke-width="8" stroke-opacity=".50" stroke-dasharray="16 14" fill="none"/>
    <path class="threat-indicator-pulse" d="M80 478C264 406 700 402 886 474" stroke="#ff3b6b" stroke-width="21" stroke-opacity=".45" fill="none"/>
    
  </g>
  <g filter="url(#glow)">
    <text x="58" y="66" fill="#23f7dd" font-family="ui-monospace, SFMono-Regular, Menlo, Monaco, Consolas, monospace" font-size="20" font-weight="900">PHASE 3</text>
    <text x="58" y="92" fill="#f7fbff" font-family="ui-monospace, SFMono-Regular, Menlo, Monaco, Consolas, monospace" font-size="16" font-weight="900">Mutation Surge</text>
    <circle class="threat-indicator-pulse" cx="902" cy="58" r="25" fill="#ff3b6b" filter="url(#glow)"/>
  </g>
</svg>
